<svg class="glyph" width="100%" height="100%" viewBox="0 0 50 50" version="1.1" xmlns="http://www.w3.org/2000/svg" xmlns:xlink="http://www.w3.org/1999/xlink" xml:space="preserve" xmlns:serif="http://www.serif.com/" style="fill:red;fill-rule:evenodd;clip-rule:evenodd;"><rect x="28.885" y="25.788" width="19.426" height="19.426" style="fill:none;stroke:#000;stroke-opacity:0.00784314;stroke-width:0.05px;"/><rect x="-1" y="-1" width="21.739" height="21.739" style="fill:none;stroke:#000;stroke-opacity:0.00784314;stroke-width:0.05px;"/><path d="M27.261,48.891l-4.348,0l0,-6.413l4.348,0l0,6.413Zm-13.565,-9.326l-3.913,3.892l-3.066,-3.066l3.892,-3.891l3.087,3.065Zm29.761,0.826l-3.066,3.066l-3.891,-3.892l3.065,-3.065l3.892,3.891Zm-18.37,-2.261c-7.196,0 -13.044,-5.847 -13.044,-13.043c0,-7.196 5.848,-13.044 13.044,-13.044c7.196,0 13.043,5.848 13.043,13.044c0,7.196 -5.847,13.043 -13.043,13.043Zm0,-22.772c5.322,0 9.642,4.32 9.642,9.642c0,5.322 -4.32,9.642 -9.642,9.642c-5.322,0 -9.642,-4.32 -9.642,-9.642c0,-5.322 4.32,-9.642 9.642,-9.642Zm-17.391,11.903l-6.522,0l0,-4.348l6.522,0l0,4.348Zm41.304,0l-6.522,0l0,-4.348l6.522,0l0,4.348Zm-42.283,-17.478l3.066,-3.066l3.891,3.913l-3.065,3.066l-3.892,-3.913Zm29.761,0.826l3.892,-3.913l3.065,3.065l-3.913,3.891l-3.044,-3.043l0,0Zm-9.217,-2.913l-4.348,0l0,-6.413l4.348,0l0,6.413Z"/></svg>