<svg class="glyph" width="100%" height="100%" viewBox="0 0 50 50" version="1.1" xmlns="http://www.w3.org/2000/svg" xmlns:xlink="http://www.w3.org/1999/xlink" xml:space="preserve" xmlns:serif="http://www.serif.com/" style="fill:red;fill-rule:evenodd;clip-rule:evenodd;"><path d="M18.428,0.777c1.575,0.161 2.064,1.909 1.446,3.458c-2.292,5.85 -1.404,12.842 2.307,17.924c5.264,7.208 15.71,10.006 24.114,5.969c0,0 0.695,-0.265 1.239,-0.162c1.21,0.23 1.819,1.559 1.434,2.955c-2.579,9.342 -11.041,16.7 -20.712,17.898c-8.537,1.057 -17.512,-2.732 -22.713,-9.598c-5.794,-7.649 -6.527,-18.781 -1.718,-27.136c2.999,-5.211 7.923,-9.248 13.651,-11.14c0.209,-0.069 0.257,-0.174 0.952,-0.168Zm-3.4,5.61c-8.274,4.727 -12.47,15.493 -9.389,24.589c2.381,7.031 8.817,12.533 16.164,13.752c8.703,1.443 18.031,-3.265 21.993,-11.38c0,0 -1.586,0.358 -3.108,0.544c-9.691,1.182 -19.873,-4.348 -24,-13.203c-2.066,-4.434 -2.625,-9.527 -1.622,-14.317c0,0 -0.025,0.008 -0.038,0.015Z" style="fill-rule:nonzero;"/><path d="M33.135,8.115c0.381,0.055 0.701,0.302 0.841,0.677l1.278,3.815l4.228,0.002c0.528,0.056 0.596,0.225 0.721,0.386c0.333,0.432 0.302,1.037 -0.216,1.429l-3.336,2.351l1.29,3.858c0.399,1.795 -0.987,1.432 -1.544,1.068l-3.369,-2.374l-3.428,2.412c-0.642,0.359 -0.781,0.164 -1.057,-0.014c-0.378,-0.242 -0.564,-0.634 -0.408,-1.159l1.27,-3.791l-3.392,-2.393c-0.196,-0.171 -0.232,-0.248 -0.291,-0.39c-0.254,-0.607 0.144,-1.358 0.923,-1.385l4.156,0l1.304,-3.882c0.187,-0.407 0.591,-0.641 1.03,-0.61Zm-0.666,5.809c-0.148,0.398 -0.52,0.668 -0.948,0.683l-1.721,0l1.422,1.005c0.307,0.269 0.437,0.682 0.316,1.092l-0.538,1.606l1.509,-1.061c0.342,-0.192 0.754,-0.185 1.095,0.038l1.452,1.023l-0.558,-1.674c-0.091,-0.413 0.067,-0.82 0.392,-1.067l1.366,-0.962l-1.79,-0.003c-0.397,-0.041 -0.734,-0.292 -0.879,-0.68l-0.559,-1.667c-0.186,0.556 -0.372,1.112 -0.559,1.667Z" style="fill-rule:nonzero;"/><path d="M40.998,2.108l0.801,2.185l2.593,0l-2.098,1.35l0.801,2.185l-2.097,-1.35l-2.098,1.35l0.802,-2.185l-2.098,-1.35l2.593,0l0.801,-2.185Z"/><path d="M41.038,1.836c0.1,0.02 0.164,0.049 0.218,0.178l0.735,2.004l2.428,0.001c0.237,0.036 0.325,0.36 0.122,0.505l-1.913,1.231l0.734,2.004c0.048,0.229 -0.207,0.421 -0.415,0.3l-1.949,-1.254l-1.972,1.268c-0.213,0.097 -0.456,-0.109 -0.384,-0.339l0.726,-1.979l-1.935,-1.247c-0.18,-0.157 -0.078,-0.478 0.171,-0.49l2.401,0l0.745,-2.029c0.056,-0.102 0.062,-0.175 0.288,-0.153Zm-0.583,2.552c-0.045,0.107 -0.141,0.175 -0.258,0.18l-1.658,0l1.333,0.86c0.091,0.079 0.124,0.195 0.088,0.31l-0.519,1.415l1.431,-0.919c0.134,-0.062 0.189,-0.037 0.275,0.013l1.408,0.906l-0.527,-1.44c-0.025,-0.118 0.019,-0.231 0.117,-0.301l1.312,-0.844l-1.684,-0.001c-0.107,-0.015 -0.177,-0.047 -0.232,-0.179l-0.543,-1.481c-0.181,0.494 -0.362,0.987 -0.543,1.481Z" style="fill-rule:nonzero;"/></svg>