<svg width="100%" height="100%" viewBox="0 0 50 50" version="1.1" xmlns="http://www.w3.org/2000/svg" xmlns:xlink="http://www.w3.org/1999/xlink" xml:space="preserve" xmlns:serif="http://www.serif.com/" style="fill:red;fill-rule:evenodd;clip-rule:evenodd;stroke-linejoin:round;stroke-miterlimit:1.41421;"><path d="M5.089,37.754c0.637,-3.228 3.472,-5.651 6.878,-5.651c2.704,0 5.053,1.534 6.222,3.78c2.817,0.3 5.006,2.686 5.006,5.577c0,3.097 -2.517,5.614 -5.614,5.614l-12.164,0c-2.583,0 -4.678,-2.096 -4.678,-4.678c0,-2.471 1.918,-4.473 4.35,-4.642Zm0.328,7.449l12.164,0c2.068,0 3.743,-1.675 3.743,-3.743c0,-2.068 -1.675,-3.743 -3.743,-3.743l-0.664,0c-0.618,-2.161 -2.592,-3.743 -4.95,-3.743c-2.845,0 -5.146,2.302 -5.146,5.147l0,0.467l-1.404,0c-1.553,0 -2.807,1.254 -2.807,2.808c0,1.553 1.254,2.807 2.807,2.807Z" style="fill-rule:nonzero;"/><path d="M29.596,46.413l-3.969,0l0,-5.855l3.969,0l0,5.855Zm14.786,-7.76l-2.799,2.799l-3.552,-3.553l2.798,-2.798l3.553,3.552Zm-16.771,-2.064c-6.569,0 -11.908,-5.339 -11.908,-11.908c0,-6.569 5.339,-11.908 11.908,-11.908c6.569,0 11.908,5.339 11.908,11.908c0,6.569 -5.339,11.908 -11.908,11.908Zm0,-20.79c4.859,0 8.803,3.944 8.803,8.803c0,4.858 -3.944,8.803 -8.803,8.803c-4.858,0 -8.803,-3.945 -8.803,-8.803c0,-4.859 3.945,-8.803 8.803,-8.803Zm-15.877,10.867l-5.954,0l0,-3.97l5.954,0l0,3.97Zm37.708,0l-5.953,0l0,-3.97l5.953,0l0,3.97Zm-38.601,-15.957l2.798,-2.798l3.553,3.572l-2.799,2.799l-3.552,-3.573Zm27.17,0.754l3.552,-3.572l2.799,2.798l-3.573,3.553l-2.778,-2.779l0,0Zm-8.415,-2.659l-3.969,0l0,-5.855l3.969,0l0,5.855Z"/></svg>