<svg class="glyph" width="100%" height="100%" viewBox="0 0 50 50" version="1.1" xmlns="http://www.w3.org/2000/svg" xmlns:xlink="http://www.w3.org/1999/xlink" xml:space="preserve" xmlns:serif="http://www.serif.com/" style="fill:red;fill-rule:evenodd;clip-rule:evenodd;stroke-linejoin:round;stroke-miterlimit:1.41421;"><path d="M9.779,31.108c1.182,-6.002 6.454,-10.507 12.786,-10.507c5.028,0 9.394,2.853 11.569,7.028c5.236,0.556 9.307,4.993 9.307,10.368c0,5.758 -4.68,10.438 -10.438,10.438l-22.616,0c-4.801,0 -8.698,-3.897 -8.698,-8.698c0,-4.593 3.566,-8.316 8.09,-8.629Zm0.608,13.848l22.616,0c3.844,0 6.958,-3.114 6.958,-6.959c0,-3.845 -3.114,-6.959 -6.958,-6.959l-1.235,0c-1.148,-4.018 -4.819,-6.958 -9.203,-6.958c-5.289,0 -9.568,4.279 -9.568,9.568l0,0.87l-2.61,0c-2.887,0 -5.219,2.331 -5.219,5.219c0,2.888 2.332,5.219 5.219,5.219Z" style="fill-rule:nonzero;"/><path d="M44.074,27.709l-2.067,2.067l-2.624,-2.624l2.067,-2.066l2.624,2.623Zm-12.386,-1.524c-4.851,0 -8.794,-3.943 -8.794,-8.795c0,-4.851 3.943,-8.794 8.794,-8.794c4.852,0 8.795,3.943 8.795,8.794c0,4.852 -3.943,8.795 -8.795,8.795Zm0,-15.355c3.588,0 6.502,2.914 6.502,6.502c0,3.588 -2.914,6.501 -6.502,6.501c-3.588,0 -6.501,-2.913 -6.501,-6.501c0,-3.588 2.913,-6.502 6.501,-6.502Zm-11.726,8.026l-4.397,0l0,-2.931l4.397,0l0,2.931Zm27.85,0l-4.398,0l0,-2.931l4.398,0l0,2.931Zm-28.509,-11.785l2.066,-2.066l2.624,2.638l-2.067,2.067l-2.623,-2.639Zm20.066,0.557l2.623,-2.638l2.067,2.067l-2.638,2.624l-2.052,-2.053l0,0Zm-6.215,-1.964l-2.932,0l0,-4.324l2.932,0l0,4.324Z"/></svg>
