<svg class="glyph" width="100%" height="100%" viewBox="0 0 50 50" version="1.1" xmlns="http://www.w3.org/2000/svg" xmlns:xlink="http://www.w3.org/1999/xlink" xml:space="preserve" xmlns:serif="http://www.serif.com/" style="fill:red;fill-rule:evenodd;clip-rule:evenodd;"><rect x="28.885" y="25.788" width="19.426" height="19.426" style="fill:none;stroke:#000;stroke-opacity:0.00784314;stroke-width:0.05px;"/><path d="M11.222,30.587c1.321,-6.702 7.207,-11.733 14.278,-11.733c5.614,0 10.49,3.186 12.918,7.848c5.847,0.621 10.393,5.575 10.393,11.578c0,6.429 -5.226,11.655 -11.656,11.655l-25.253,0c-5.361,0 -9.713,-4.351 -9.713,-9.713c0,-5.128 3.982,-9.285 9.033,-9.635Zm0.68,15.463l25.253,0c4.293,0 7.771,-3.477 7.771,-7.77c0,-4.294 -3.478,-7.771 -7.771,-7.771l-1.379,0c-1.282,-4.487 -5.381,-7.77 -10.276,-7.77c-5.905,0 -10.684,4.779 -10.684,10.684l0,0.971l-2.914,0c-3.225,0 -5.828,2.603 -5.828,5.828c0,3.225 2.603,5.828 5.828,5.828Z" style="fill-rule:nonzero;"/></svg>