<svg class="glyph" width="100%" height="100%" viewBox="0 0 50 50" version="1.1" xmlns="http://www.w3.org/2000/svg" xmlns:xlink="http://www.w3.org/1999/xlink" xml:space="preserve" xmlns:serif="http://www.serif.com/" style="fill:red;fill-rule:evenodd;clip-rule:evenodd;stroke-linejoin:round;stroke-miterlimit:1.41421;"><path d="M10.287,29.947c1.331,-6.75 7.259,-11.818 14.381,-11.818c5.655,0 10.566,3.209 13.012,7.905c5.889,0.626 10.468,5.615 10.468,11.661c0,6.477 -5.263,11.74 -11.74,11.74l-25.436,0c-5.4,0 -9.783,-4.383 -9.783,-9.783c0,-5.166 4.011,-9.353 9.098,-9.705Zm0.685,15.575l25.436,0c4.324,0 7.827,-3.503 7.827,-7.827c0,-4.324 -3.503,-7.826 -7.827,-7.826l-1.389,0c-1.291,-4.52 -5.42,-7.827 -10.351,-7.827c-5.948,0 -10.761,4.814 -10.761,10.762l0,0.978l-2.935,0c-3.248,0 -5.87,2.622 -5.87,5.87c0,3.248 2.622,5.87 5.87,5.87Z" style="fill-rule:nonzero;"/><path d="M11.088,33.782c-4.207,0 -7.621,-3.414 -7.621,-7.621c0,-4.024 3.124,-7.285 7.087,-7.56c1.037,-5.258 5.655,-9.206 11.203,-9.206c4.405,0 8.231,2.5 10.136,6.158c4.588,0.488 8.154,4.374 8.154,9.084c0,2.04 -0.67,3.926 -1.803,5.448c-0.589,-0.141 -1.203,-0.216 -1.836,-0.216l-1.389,0c-0.055,-0.194 -0.116,-0.385 -0.182,-0.574c1.323,-1.118 2.162,-2.79 2.162,-4.658c0,-3.369 -2.728,-6.097 -6.097,-6.097l-1.082,0c-1.006,-3.521 -4.222,-6.097 -8.063,-6.097c-4.633,0 -8.383,3.75 -8.383,8.383l0,0.763l-2.286,0c-2.531,0 -4.573,2.042 -4.573,4.572c0,2.53 2.043,4.573 4.573,4.573l3.018,0c-0.131,0.67 -0.199,1.362 -0.199,2.07l0,0.978l-2.819,0Z" style="fill-rule:nonzero;"/><path d="M45.415,23.489l-1.512,1.511l-1.918,-1.919l1.511,-1.511l1.919,1.919Zm-15.227,-5.728c-0.17,-0.577 -0.261,-1.187 -0.261,-1.818c0,-3.548 2.883,-6.431 6.431,-6.431c3.547,0 6.431,2.883 6.431,6.431c0,2.934 -1.972,5.414 -4.661,6.184l-0.878,-1.557c2.198,-0.418 3.862,-2.351 3.862,-4.67c0,-2.624 -2.13,-4.754 -4.754,-4.754c-2.624,0 -4.754,2.13 -4.754,4.754c0,0.733 0.166,1.428 0.463,2.048l-1.879,-0.187Zm17.96,-0.746l-3.216,0l0,-2.144l3.216,0l0,2.144Zm-20.847,-8.617l1.511,-1.512l1.919,1.93l-1.512,1.511l-1.918,-1.929Zm14.673,0.407l1.919,-1.929l1.511,1.511l-1.929,1.918l-1.501,-1.5l0,0Zm-4.544,-1.436l-2.144,0l0,-3.162l2.144,0l0,3.162Z"/></svg>